PathFileType	4	(X/Y/Z)	41_1_21_p0_0-279_filt_butterworth.trc
DataRate	CameraRate	NumFrames	NumMarkers	Units	OrigDataRate	OrigDataStartFrame	OrigNumFrames
50.0	50.0	7	27	m	50.0	139	279
Frame#	Time	RHip			RKnee			RAnkle			RBigToe			RSmallToe			RHeel			LHip			LKnee			LAnkle			LBigToe			LSmallToe			LHeel			Neck			Head			Nose			RShoulder			RElbow			RWrist			RThumb			RIndex			RPinky			LShoulder			LElbow			LWrist			LThumb			LIndex			LPinky			
		X1	Y1	Z1	X2	Y2	Z2	X3	Y3	Z3	X4	Y4	Z4	X5	Y5	Z5	X6	Y6	Z6	X7	Y7	Z7	X8	Y8	Z8	X9	Y9	Z9	X10	Y10	Z10	X11	Y11	Z11	X12	Y12	Z12	X13	Y13	Z13	X14	Y14	Z14	X15	Y15	Z15	X16	Y16	Z16	X17	Y17	Z17	X18	Y18	Z18	X19	Y19	Z19	X20	Y20	Z20	X21	Y21	Z21	X22	Y22	Z22	X23	Y23	Z23	X24	Y24	Z24	X25	Y25	Z25	X26	Y26	Z26	X27	Y27	Z27	
139	2.78	0.39565410276471363	0.8274622196276493	0.5646582849034026	0.39629005296526215	0.4144261956432604	0.6287378758175989	0.38646864953605287	0.07162490679502123	0.6491517900415898	0.3648004088760288	0.02853029130898177	0.523404506320631	0.4324823878861852	0.037291030558143964	0.5174273717828463	0.3602550720583515	-0.009838385753326385	0.7352191549994261	0.20404305723706437	0.8278811268350922	0.5697648526921173	0.2002330964850563	0.4175070571922594	0.6115549689350765	0.19557798707611357	0.025833542604121296	0.7045992803084007	0.1920979870521508	0.0415179701458652	0.5105742981036732	0.14742172416448823	0.03135019819723978	0.5539864495888763	0.21565808663119035	-0.015881584431361707	0.7351906292368294	0.28529150491334393	1.352837358507224	0.5729391687833852	0.2740455761693549	1.5855605555416485	0.5548915697908976	0.2795605041655105	1.4712960701898348	0.46455225499166136	0.43833854539371375	1.2512314453071949	0.5741892087951778	0.47207902157951287	1.0426510462649659	0.47590933174739053	0.5034864490304981	1.119778173279557	0.3155181875199409	0.5166233576052053	1.1744419301549562	0.2544487861408049	0.5109618994948819	1.1677893172301155	0.2519727952787187	0.5054591052286793	1.123712004500007	0.24321675728616055	0.13510376831510293	1.248209833344603	0.6211948984782735	0.017657305194652098	1.063079638050543	0.538359356173574	-0.13630416859612624	1.1465601618206787	0.45849926172700245	-0.19403837700031407	1.188576077369499	0.4257287749862449	-0.2102067649735451	1.2013618683255507	0.4280497524323892	-0.20838407102357598	1.166874788894665	0.4240750126016772	
140	2.8	0.39421768909949334	0.8271357548076124	0.5628879138316837	0.3965766286812373	0.4137565630000879	0.6302496776064734	0.3865574353761131	0.07212173651104803	0.6491670915478247	0.3644560261106779	0.02838692639319077	0.5235776662306708	0.4325344205139101	0.03664089426205065	0.517161111213664	0.35991467876240524	-0.00841605969438519	0.7345009157215565	0.20363630084455162	0.8275577078008922	0.5696582671313462	0.19909730444017124	0.41797324744181036	0.6109538439126425	0.1948694444303556	0.026418257856273806	0.704182752849649	0.19093541988019247	0.04264979872268303	0.5099083810611128	0.14767856072769775	0.03243846123218824	0.553414752512481	0.21508489327948327	-0.014931431657210179	0.7344960186508531	0.28528758355415484	1.3528994382191892	0.5726095608502298	0.27488025256900084	1.5844558077978526	0.5545015988383314	0.28110822046761064	1.4705533972072737	0.46762942464557705	0.438613954463126	1.2503313374954736	0.5758421254757615	0.4749080776696169	1.0432824992286918	0.48613243361759917	0.5196054213704397	1.11497141525286	0.32546455615893066	0.5351726628121081	1.169294377508538	0.25493990255146237	0.5293191447045507	1.16239351479077	0.2511114130600099	0.5223866759550702	1.11372748777213	0.2443029306621384	0.13483272975526378	1.2502411444353678	0.6189844142897267	0.02059612902161255	1.0661366508566805	0.5407828911028728	-0.12940337763475165	1.1373110405241629	0.44433930004210637	-0.19135688118298855	1.1781440742833278	0.418277999768541	-0.20622368813874925	1.1870757669518235	0.42210185612857265	-0.20265222169670155	1.1521177103573632	0.4158910837889483	
141	2.82	0.3927511498781501	0.8269392453158328	0.5609080202512425	0.39684119043185156	0.41327662370282214	0.6320549278381885	0.38671575279011855	0.07255421210420288	0.6497762376467123	0.3643036696675096	0.028586408532818217	0.5232033272300941	0.4324650835026691	0.03687898416278701	0.5170183647774143	0.3597576760326425	-0.007094073173765789	0.7342172559677836	0.20319746470463831	0.8274016331647883	0.569573582968099	0.19788272892528172	0.41850636772185074	0.6106168498992653	0.19424786868839977	0.02693756299919049	0.703801089463952	0.19003540100258925	0.04261400518734344	0.5111140483740522	0.1479203135921591	0.03338117854987169	0.5528716459954695	0.2144949494563351	-0.014219888905847699	0.7339653998262643	0.2854614766503065	1.3530673596300347	0.571382384163491	0.27576547559122444	1.5835661262408167	0.5543854940798327	0.28281071682974535	1.469928737901604	0.46961765163880814	0.43923414311209186	1.2475868222744844	0.5788563046181976	0.4776560655517071	1.0434112043281565	0.4940819135260761	0.534100819081239	1.1078771846167115	0.33142539995041315	0.5516127776255288	1.1623982384973033	0.24914846759250403	0.5454785649412727	1.1547132713889274	0.24626473811196042	0.5359791049025202	1.1035087367967713	0.2461264921609022	0.1351013153391157	1.2519980031683138	0.6177706430619209	0.025498543887249495	1.070227209389147	0.5437270972014141	-0.11823559709152326	1.1244898302700281	0.4313890813584591	-0.18207948657214845	1.1641696343842602	0.4099703083779083	-0.196309229768394	1.1686224071274853	0.40996504545707374	-0.19123923872491277	1.1323169844281498	0.4048068208655572	
142	2.84	0.3912952218252367	0.8269846708872729	0.5585819475654611	0.3970020682555501	0.41296765143746006	0.6339153974763313	0.38685380446070144	0.07284866473562732	0.6507947041675917	0.3643220578043196	0.02851324805074927	0.5233537442439249	0.4322925445130331	0.03798551231988046	0.5170703126206618	0.35983327143067145	-0.00605709801472713	0.7344125330548308	0.20273811394158905	0.8274650098042222	0.5695243356614366	0.19656272484384907	0.4189346893977952	0.610798435848445	0.19363355789096437	0.027396036530565573	0.7034466287760802	0.18975392530219437	0.04146950516567087	0.5140114344972914	0.14792360702553461	0.033666711317402925	0.5530279551476323	0.2140586586432547	-0.013729709866139972	0.7336466260306326	0.2858646606137768	1.3533196573498043	0.5693569569986874	0.2764491826546248	1.583173046502126	0.5545154194420978	0.28447433905350117	1.4695566764696169	0.4691885964927549	0.44030841114996033	1.2437154998561086	0.5814181587768025	0.4799357363542599	1.0429283125706303	0.49882332808573043	0.5453121708408069	1.0985453165580865	0.33357650565490904	0.5647360370915397	1.1539957133683072	0.23967436495291358	0.5574157598491488	1.1447447967771573	0.23997399054163743	0.5452809988866599	1.0939144591596064	0.24868053694677505	0.13578820234794756	1.2532688059157138	0.6178140737775085	0.0315288333094456	1.0739521860042913	0.5476600423308484	-0.10415326935595572	1.1090359164381673	0.42232165617239026	-0.1664841103134364	1.1467144211278637	0.40025662852391736	-0.18066422759871772	1.1472110494183145	0.39254240297514775	-0.1738825420588349	1.108675580328428	0.3919106026362157	
143	2.86	0.38985805785228556	0.8274182977267531	0.5557912947484487	0.397037672929393	0.41267048904042536	0.635863322827317	0.38695380197760526	0.07289176273692524	0.6520204664696714	0.3644487347292914	0.027764929163013135	0.5247015085418917	0.4320551141163379	0.03969170844153978	0.517256242011161	0.36010751918011413	-0.0054410262326163895	0.7352610319198988	0.20225707996141076	0.8277623255757739	0.5694865454778529	0.19522640289070564	0.4191728204400827	0.6115751374001294	0.19297529379398407	0.02773587367108136	0.7031396540137451	0.1901557443462426	0.03994690730372398	0.5173843583383928	0.14754451979353916	0.03300555337819104	0.5543019090006529	0.21383347848287487	-0.01342254083619727	0.7335687377428988	0.28658232474858986	1.3536130884168982	0.5668664103203064	0.2769796459885417	1.5832523666575666	0.5547225183741015	0.28611042033929346	1.4694984564299154	0.46662002485700055	0.44163063594237256	1.2397333140185671	0.5820753727616268	0.48118414491206835	1.0421755720010242	0.5003789605328673	0.5516661148032365	1.0881486619636647	0.3339602994613125	0.5731586524266896	1.1450924104985027	0.22933740800476848	0.5640047173458854	1.1336885835903678	0.23419021697527953	0.5496973883625709	1.085928630541077	0.2513461712226207	0.13703625680843073	1.2542342234937238	0.6174305325197739	0.03833998942248808	1.0764904309622685	0.5524119158178669	-0.08754833543159996	1.091898569598262	0.4178847990921793	-0.1453664281840744	1.1267966674771075	0.3878344659574579	-0.16005467155339925	1.1237610778339406	0.37305062211832185	-0.15051348194074726	1.0828823907389085	0.3778371789780794	
144	2.88	0.3884520233545765	0.8282227460655534	0.552747488377922	0.39697653804797595	0.41217057979768307	0.6380741149242012	0.387034925479477	0.07271054367988103	0.6532628596403942	0.36476569889055444	0.02619776295476027	0.5274928290660654	0.43179490872415627	0.04163456685486186	0.5174956258594456	0.3604703171166215	-0.005300104475879752	0.7368368531606623	0.20175071265753675	0.8282772426025441	0.5694219748412106	0.19403924812880285	0.4191610578388524	0.6128019818305553	0.19230759356568097	0.027922189111595146	0.7028893862585645	0.19090322221584144	0.038659408035498354	0.5201058403778509	0.1468453616072128	0.0316050083796232	0.556537724719719	0.21373267827428544	-0.013294388482010241	0.7336935268554788	0.28764268780744484	1.3539110571829696	0.5642417130258456	0.27760917275921426	1.583456642700263	0.5547650553152367	0.28778831946000644	1.469733773726675	0.46298243497997804	0.44276067534315966	1.236317437046751	0.58074565770205	0.48092384199337473	1.0414774107393356	0.4991318521309205	0.5522476711431605	1.0781343452515737	0.33419960929348436	0.5759784012838588	1.1368520945708278	0.22000373191901573	0.5656257777591227	1.1229497580516752	0.23004533286006412	0.5501783743645416	1.0799238408750982	0.2536862254529096	0.13917145946326923	1.25523398319141	0.6148197294546022	0.0459020664688702	1.0773551353776065	0.5585524595925389	-0.06814057154317758	1.0731995689428768	0.4181747580613372	-0.1192657532192341	1.1050713678299346	0.3732321389990802	-0.1351368163002009	1.0983309781575437	0.354447146981756	-0.12266756860691194	1.0559652421952066	0.36417040325131544	
145	2.9	0.3871366178122856	0.8291050075637192	0.5498827373423271	0.39685203260803803	0.41140568703162284	0.6405151610926375	0.3870956458067091	0.07243220854312189	0.6543886322591587	0.36530871368222717	0.02387403989275905	0.5316370033717717	0.43155569415619627	0.043426618702938166	0.5177610440360326	0.3608503874743448	-0.005544754103971386	0.7388309436631175	0.20124150043774358	0.8289109841338118	0.5693235532163087	0.19306513471288805	0.4188603629278865	0.6143304666647149	0.1916923281763156	0.028020658681593816	0.7026784144172313	0.19150011993434968	0.03789507961024508	0.5216094130798997	0.14599199288920298	0.02990527890339509	0.5592975467482657	0.21362623088886523	-0.013302918725843224	0.733841303953627	0.28893555396753534	1.3541818622989847	0.5617973636681483	0.27850512539951466	1.5833848263577128	0.554559136389291	0.2893895602024732	1.470143921574052	0.4590052797675427	0.44335244864096546	1.233745139637947	0.5782056486709395	0.4793046090387036	1.0407898297810234	0.49597053328171015	0.5471949157831801	1.069572414128695	0.3345263493291727	0.5723609018305987	1.1302248976890767	0.21258712897564616	0.5622766493579486	1.1137493175240833	0.22782401790767914	0.5478281226805745	1.075513204693084	0.25535774822553936	0.1420909505102751	1.2564301984822461	0.6098754829507715	0.0536759038300942	1.0760970395802414	0.5670303724920779	-0.046371237996194525	1.0529820969576447	0.42233849327411177	-0.08851839124808537	1.0821219470677463	0.358213441028109	-0.10658934202298542	1.071829856103107	0.33705107242271426	-0.09311452789972499	1.0280431924426623	0.35376006816234784	
